<?xml version="1.0" encoding="UTF-8"?>
<svg width="150" height="150" viewBox="0 0 150 150" fill="none" xmlns="http://www.w3.org/2000/svg">
  <rect width="150" height="150" fill="#1F2937"/>
  <path d="M75 80C91.5685 80 105 66.5685 105 50C105 33.4315 91.5685 20 75 20C58.4315 20 45 33.4315 45 50C45 66.5685 58.4315 80 75 80Z" fill="#6366F1" fill-opacity="0.2"/>
  <path d="M116.535 122.535C118.488 120.583 119.999 118.225 120.976 115.636C121.953 113.047 122.37 110.282 122.198 107.522C122.026 104.762 121.269 102.078 119.976 99.6454C118.683 97.2128 116.882 95.0891 114.687 93.4155C112.492 91.7419 109.957 90.5591 107.252 89.9447C104.547 89.3303 101.739 89.2989 99.0223 89.8525C96.3058 90.4061 93.7474 91.5306 91.518 93.1524C89.2886 94.7742 87.4443 96.8541 86.1 99.2535C82.9265 94.4868 78.584 90.6614 73.5133 88.1747C68.4426 85.688 62.8177 84.6246 57.1609 85.0827C51.5041 85.5408 46.0519 87.5058 41.2712 90.8234C36.4905 94.141 32.5398 98.7094 29.8 104.154C29.2767 105.084 29.0018 106.121 29 107.175V110C29 111.591 29.6321 113.117 30.7574 114.243C31.8826 115.368 33.4087 116 35 116H115C115.796 116 116.583 115.842 117.31 115.536C118.037 115.23 118.69 114.782 119.228 114.222C119.766 113.662 120.179 112.99 120.446 112.251C120.713 111.512 120.828 110.724 120.784 109.937C120.706 108.541 120.054 107.234 119 106.254L116.535 122.535Z" fill="#6366F1" fill-opacity="0.2"/>
</svg> 